{"title":"Naruto Shippuden Episode 280 - With English Subtitle [Jazz_Singh","uid":7655791,"size":39441879,"categoryP":"video","categoryS":"tv_shows","magnet":"?xt=urn:btih:3bdcdee66296dc444824c30d7f5387ab77e02c76&amp;dn=Naruto+Shippuden+Episode+280+-+With+English+Subtitle+%5BJazz_Singh&amp;tr=udp%3A%2F%2Ftracker.openbittorrent.com%3A80&amp;tr=udp%3A%2F%2Fopen.demonii.com%3A1337&amp;tr=udp%3A%2F%2Ftracker.coppersurfer.tk%3A6969&amp;tr=udp%3A%2F%2Fexodus.desync.com%3A6969","seeders":0,"leechers":2,"uploader":"jazzsingh","files":10,"time":1348149608,"description":"Naruto Shippuden Episode 280\n\n\nTitle: The Artist's Aesthetics\nRelease date : September 20th, 2012\nAudio language : Japanese\nSubTitle language : English\n\nGeneral\n\nFormat : MPEG-4\nFormat profile : Base Media\nCodec ID : isom\nFile size : 37.6 MiB\nDuration : 23mn 9s\nOverall bit rate mode : Variable\nOverall bit rate : 227 Kbps\nEncoded date : UTC 2012-09-19 11:04:23\nTagged date : UTC 2012-09-19 11:04:23\n\nVideo\n\nFormat : AVC\nFormat/Info : Advanced Video Codec\nFormat profile : &lt;a class=&quot;__cf_email__&quot; href=&quot;/cdn-cgi/l/email-protection&quot; data-cfemail=&quot;d098b9b7b8909ce2fee1&quot;&gt;[email&amp;#160;protected]&lt;/a&gt;&lt;script cf-hash='f9e31' type=&quot;text/javascript&quot;&gt;\n/* &lt;![CDATA[ */!function(){try{var t=&quot;currentScript&quot;in document?document.currentScript:function(){for(var t=document.getElementsByTagName(&quot;script&quot;),e=t.length;e--;)if(t[e].getAttribute(&quot;cf-hash&quot;))return t[e]}();if(t&amp;&amp;t.previousSibling){var e,r,n,i,c=t.previousSibling,a=c.getAttribute(&quot;data-cfemail&quot;);if(a){for(e=&quot;&quot;,r=parseInt(a.substr(0,2),16),n=2;a.length-n;n+=2)i=parseInt(a.substr(n,2),16)^r,e+=String.fromCharCode(i);e=document.createTextNode(e),c.parentNode.replaceChild(e,c)}}}catch(u){}}();/* ]]&gt; */&lt;/script&gt;\nFormat settings, CABAC : Yes\nFormat settings, ReFrames : 4 frames\nCodec ID : avc1\nCodec ID/Info : Advanced Video Coding\nDuration : 23mn 9s\nBit rate : 180 Kbps\nMaximum bit rate : 1 633 Kbps\nWidth : 512 pixels\nHeight : 288 pixels\nDisplay aspect ratio : 16:9\nFrame rate mode : Constant\nFrame rate : 23.976 fps\nColor space : YUV\nChroma subsampling : 4:2:0\nBit depth : 8 bits\nScan type : Progressive\nBits/(Pixel*Frame) : 0.051\nStream size : 29.8 MiB (79%)\nTitle : Imported with GPAC 0.4.6-DEV (build 1)\nWriting library : x264 core 79 r1342kMod e8501ef\n\nAudio\n\nFormat : AAC\nFormat/Info : Advanced Audio Codec\nFormat profile : LC\nCodec ID : 40\nDuration : 23mn 9s\nBit rate mode : Variable\nBit rate : 44.0 Kbps\nMaximum bit rate : 55.4 Kbps\nChannel(s) : 2 channels\nChannel positions : Front: L R\nSampling rate : 44.1 KHz\nCompression mode : Lossy\nStream size : 7.29 MiB (19%)\nEncoded date : UTC 2012-09-19 11:04:24\nTagged date : UTC 2012-09-19 11:04:24\n","torrent":{"xt":"urn:btih:3bdcdee66296dc444824c30d7f5387ab77e02c76","amp;dn":"Naruto+Shippuden+Episode+280+-+With+English+Subtitle+%5BJazz_Singh","amp;tr":["udp%3A%2F%2Ftracker.openbittorrent.com%3A80","udp%3A%2F%2Fopen.demonii.com%3A1337","udp%3A%2F%2Ftracker.coppersurfer.tk%3A6969","udp%3A%2F%2Fexodus.desync.com%3A6969"],"infoHash":"3bdcdee66296dc444824c30d7f5387ab77e02c76","infoHashBuffer":{"type":"Buffer","data":[59,220,222,230,98,150,220,68,72,36,195,13,127,83,135,171,119,224,44,118]},"announce":[],"urlList":[]}}